PathFileType	4	(X/Y/Z)	C:/Users/opensim2020/Desktop/walking_exp_matlab/subject02_walking14_straight_04.trc	
DataRate	CameraRate	NumFrames	NumMarkers	Units	OrigDataRate	OrigDataStartFrame	OrigNumFrames	
100.00	100.00	6	41	mm	100.00	1678	137	
Frame#	Time	LFHD			RFHD			LBHD			RBHD			C7			T10			CLAV			STRN			RBAK			LSHO			LUPA			LELB			LFRM			LWRA			LWRB			LFIN			RSHO			RUPA			RELB			RFRM			RWRA			RWRB			RFIN			LASI			RASI			LPSI			RPSI			LTHI			LKNE			LTIB			LANK			LHEE			LTOE			RTHI			RKNE			RTIB			RANK			RHEE			RTOE			*39			*40			
		X1	Y1	Z1	X2	Y2	Z2	X3	Y3	Z3	X4	Y4	Z4	X5	Y5	Z5	X6	Y6	Z6	X7	Y7	Z7	X8	Y8	Z8	X9	Y9	Z9	X10	Y10	Z10	X11	Y11	Z11	X12	Y12	Z12	X13	Y13	Z13	X14	Y14	Z14	X15	Y15	Z15	X16	Y16	Z16	X17	Y17	Z17	X18	Y18	Z18	X19	Y19	Z19	X20	Y20	Z20	X21	Y21	Z21	X22	Y22	Z22	X23	Y23	Z23	X24	Y24	Z24	X25	Y25	Z25	X26	Y26	Z26	X27	Y27	Z27	X28	Y28	Z28	X29	Y29	Z29	X30	Y30	Z30	X31	Y31	Z31	X32	Y32	Z32	X33	Y33	Z33	X34	Y34	Z34	X35	Y35	Z35	X36	Y36	Z36	X37	Y37	Z37	X38	Y38	Z38	X39	Y39	Z39	X40	Y40	Z40	X41	Y41	Z41	

1	0.000	-899.36609	878.56970	1722.70898	-1043.67358	890.40973	1715.98804	-886.23132	1008.89398	1648.79346	-1027.96106	1033.11121	1640.47156	-965.05737	1069.88513	1515.06848	-983.32214	1137.43445	1247.63037	-965.53662	930.57349	1442.62976	-992.95990	889.73022	1269.01575	-1042.16589	1136.73438	1353.05334	-791.62909	988.70892	1474.32214	-696.31482	1029.73193	1287.08264	-659.85962	1058.82092	1159.51587	-615.82367	1084.14624	1039.72119	-599.12506	1059.54041	902.82599	-583.09656	1109.54309	923.52057	-557.06476	1109.65625	862.17926	-1149.60938	1000.48181	1501.58496	-1278.38379	1009.46045	1342.83044	-1344.04053	967.34625	1213.90930	-1383.65735	885.55029	1130.75073	-1385.75940	778.45752	1047.49963	-1420.40137	817.72034	1026.23987	-1435.30115	753.46356	997.99738	-884.36798	914.59576	967.43420	-1138.92383	959.43170	962.44043	-929.40570	1131.51270	1025.34973	-1039.79761	1154.44727	1033.10754	-830.55133	906.35974	666.04456	-891.70062	853.42328	480.85532	-917.51508	837.91321	288.90372	-964.75745	743.64771	86.40928	-1024.38574	759.30756	54.01110	-937.08643	594.52771	108.78645	-1183.44678	1126.40710	679.29364	-1140.78992	1185.69983	476.16510	-1138.73328	1279.39465	312.10135	-1101.09973	1342.50757	127.64011	-1040.72095	1379.88770	82.03584	-1141.60559	1210.43909	42.20617	-975.41602	985.95459	1796.02820			 
2	0.010	-900.96936	865.51990	1721.21118	-1045.21021	877.11383	1714.40271	-888.07532	995.86310	1647.15417	-1029.98364	1019.88275	1638.86060	-966.74402	1056.56750	1513.05505	-984.97491	1123.36609	1245.43469	-967.04230	916.91870	1441.29028	-994.80249	875.35095	1267.77161	-1043.71289	1122.89844	1350.81555	-793.32922	975.31775	1472.39270	-697.18402	1016.90424	1285.82153	-660.77759	1047.08142	1159.11523	-614.72931	1075.26758	1041.15503	-594.97522	1054.62537	903.90631	-580.06195	1104.08972	926.55579	-552.56458	1107.06934	865.96033	-1151.37231	987.10455	1499.69397	-1280.03467	996.12421	1340.85754	-1346.78198	952.21332	1213.09656	-1385.56799	867.51050	1132.33105	-1386.74194	757.80103	1052.84302	-1421.78589	796.12927	1030.17859	-1435.76904	730.96857	1004.43768	-886.65869	898.78790	965.58093	-1141.78137	945.83856	960.22638	-931.57770	1116.84863	1023.17694	-1041.38440	1139.80945	1030.59302	-831.43298	894.64435	663.60925	-892.91907	838.12573	478.89194	-916.95270	817.85492	287.72910	-962.95911	718.72260	87.01184	-1022.00946	734.60638	53.50815	-938.84399	569.17590	112.28233	-1185.39832	1115.97815	678.89233	-1142.63184	1177.10449	476.54102	-1139.72424	1273.89502	314.24539	-1101.87048	1340.51758	131.00813	-1041.28613	1378.34778	86.48555	-1141.87378	1210.35400	42.29616	-977.43927	972.79834	1794.42017	-3356.88916	2845.92700	1034.19812 
3	0.020	-902.55969	852.52087	1719.92810	-1046.72290	863.81805	1712.86511	-889.86304	982.72064	1645.62024	-1031.64343	1006.55798	1637.24829	-968.12518	1043.13757	1511.13257	-986.34924	1108.96838	1243.31372	-968.50244	902.95728	1440.07959	-996.61542	860.75580	1266.79468	-1044.96484	1109.06909	1348.70007	-794.63086	961.95764	1470.77844	-698.36682	1003.80292	1284.37488	-661.48877	1034.87915	1158.62866	-614.33325	1065.91357	1042.62024	-591.13654	1049.09753	905.50995	-577.79230	1097.96960	929.57733	-549.03467	1103.25525	869.81427	-1153.06482	974.17773	1497.95410	-1281.53271	983.30859	1338.78430	-1349.05127	937.71759	1212.08069	-1387.10938	850.32568	1133.75830	-1387.31860	738.14044	1058.13525	-1422.26392	775.47577	1033.86414	-1436.08191	709.38007	1010.52393	-889.26575	883.26782	963.95612	-1144.44177	931.46411	958.20752	-933.12451	1101.36865	1021.02106	-1042.79211	1124.79407	1028.46741	-832.20361	881.25867	662.09753	-893.82166	822.27771	477.53247	-915.20599	799.11566	286.60156	-960.86536	697.96851	86.87893	-1019.09692	714.78278	51.97078	-941.09393	548.18341	113.92715	-1187.54468	1104.80029	678.56140	-1144.48413	1167.28088	476.67334	-1141.06042	1267.52856	316.51062	-1102.85132	1338.14331	134.90701	-1042.13574	1376.74426	91.51521	-1142.19373	1210.13391	42.28469	-979.46509	959.69000	1792.86121			 
4	0.030	-904.10364	839.25793	1718.49377	-1048.07043	850.60382	1711.41553	-891.27814	969.61841	1644.38220	-1032.96790	993.19928	1635.58240	-969.18811	1029.50073	1509.26245	-987.56512	1094.30164	1241.20850	-969.80896	888.95508	1438.95093	-998.26215	845.91650	1265.90088	-1045.78235	1094.96594	1346.60498	-795.82458	948.25049	1469.23413	-699.37512	990.56885	1283.11865	-662.52441	1022.42041	1158.28296	-614.04095	1056.20374	1043.95581	-588.37561	1042.46204	906.76331	-576.24567	1090.99109	932.41864	-546.31934	1098.39539	873.66998	-1154.52625	961.15387	1496.20007	-1282.54749	970.81409	1336.71631	-1350.81885	923.84399	1210.92554	-1388.12280	833.86401	1135.08203	-1387.39429	719.52087	1063.31030	-1421.90247	755.77924	1037.18445	-1435.83826	688.98590	1016.79401	-892.03699	867.09772	962.68823	-1147.24036	916.66522	956.43115	-934.26666	1085.29785	1019.13208	-1043.97205	1109.46497	1026.73840	-833.30847	865.35193	661.10376	-894.44806	805.62408	476.45831	-912.97595	781.63568	285.40262	-958.91345	681.29138	85.42315	-1016.25208	699.55804	49.45167	-944.02649	531.18866	112.67986	-1189.75195	1092.79272	678.23431	-1146.90222	1156.43640	476.71924	-1142.67883	1260.35071	318.85870	-1104.08862	1335.25842	139.11256	-1043.11694	1374.60913	97.13070	-1142.60498	1209.76794	42.41036	-980.82324	946.60187	1791.44458	-3360.44604	2845.32495	1034.25903 
5	0.040	-905.20349	826.50500	1717.58972	-1049.34265	837.48004	1710.02588	-892.45734	956.62311	1643.35376	-1034.34302	980.12292	1634.17273	-969.98389	1015.87030	1507.49207	-988.55188	1079.24817	1239.05933	-970.93616	874.77832	1437.85681	-999.77234	830.92444	1265.14197	-1046.47095	1080.92480	1344.57275	-796.88489	934.18317	1467.75806	-700.39050	977.63074	1282.37463	-663.50092	1009.74719	1157.93848	-614.28351	1045.91296	1045.07190	-586.08594	1035.06079	908.06744	-575.42511	1083.26758	935.13745	-544.36121	1092.47742	877.30975	-1155.75293	948.43201	1494.69617	-1282.82910	958.80713	1334.63855	-1352.19849	910.59534	1209.75903	-1388.65869	818.30298	1136.27930	-1387.07324	701.99158	1068.27185	-1421.41064	737.11322	1040.66370	-1435.36609	669.72742	1022.94745	-894.69000	849.89557	961.80688	-1150.01086	901.41815	954.95862	-935.10370	1068.83655	1017.45447	-1044.86926	1093.63965	1025.10535	-835.03113	847.00366	660.34515	-894.83862	788.41156	475.52362	-910.66687	765.45251	284.20804	-957.14417	668.46075	82.69297	-1013.40063	688.76984	46.02080	-946.71350	518.23120	109.30973	-1191.96851	1079.84473	677.86920	-1149.79370	1144.61389	476.70795	-1144.57715	1252.39319	321.38818	-1105.48108	1331.87048	143.73792	-1044.18323	1371.67712	103.41647	-1143.00830	1209.52319	42.24178	-982.34247	933.63196	1790.11157	-3360.40942	2845.24927	1034.46606 
6	0.050	-906.35583	813.43597	1716.78320	-1050.54565	824.47632	1708.75378	-893.57971	943.48737	1642.20081	-1035.43335	967.03235	1632.53516	-970.49200	1002.16205	1505.67065	-989.29449	1063.91040	1236.83594	-971.86176	860.60126	1436.90027	-1001.04498	815.78876	1264.45398	-1046.73596	1066.48218	1342.35876	-797.72351	920.07947	1466.71973	-701.26563	963.94543	1281.45862	-664.59711	996.93103	1157.68542	-614.97662	1035.13782	1046.18274	-584.38605	1026.85767	909.53119	-575.37982	1074.79236	937.52222	-542.69690	1086.20618	881.50006	-1156.60107	935.78796	1493.26599	-1282.96130	947.09821	1332.75134	-1353.06836	897.98688	1208.55334	-1388.76038	803.58978	1137.32092	-1386.34790	685.54126	1072.92407	-1420.69287	719.65027	1043.74377	-1433.94568	651.60205	1028.55408	-897.70197	832.87164	961.14331	-1152.78589	885.72607	953.76636	-935.84332	1052.03003	1015.94781	-1045.53711	1077.28711	1023.45123	-837.28522	826.92792	659.98767	-895.16730	770.93445	474.57031	-908.61786	750.69147	282.75217	-955.23370	659.57257	78.83195	-1010.23218	681.56171	41.38810	-949.33521	508.87271	103.37879	-1194.25696	1065.98022	677.41827	-1152.92847	1131.85376	476.66016	-1146.72668	1243.67798	324.02744	-1106.99707	1327.93945	148.80954	-1045.26611	1368.30872	110.32020	-1143.52295	1209.15710	42.24383	-983.70905	920.85217	1788.74194	-3356.89868	2845.80762	1034.42065 
